<svg width="23" height="32" viewBox="0 0 23 32" fill="none" xmlns="http://www.w3.org/2000/svg">
<path fill-rule="evenodd" clip-rule="evenodd" d="M11.3886 0.166871C11.5678 0.166597 11.7445 0.208448 11.9045 0.289049C12.0645 0.369649 12.2033 0.48674 12.3097 0.630871L22.52 14.4914L11.3886 18.1852L0.257165 14.4914L10.472 0.630871C10.578 0.487361 10.7161 0.37065 10.8752 0.290078C11.0344 0.209506 11.2102 0.167312 11.3886 0.166871ZM0.232022 17.4903L10.472 31.392C10.5782 31.5361 10.7168 31.6533 10.8766 31.734C11.0364 31.8148 11.213 31.8568 11.392 31.8568C11.5711 31.8568 11.7476 31.8148 11.9074 31.734C12.0672 31.6533 12.2058 31.5361 12.312 31.392L22.552 17.4903L11.8434 21.0469C11.551 21.1432 11.2353 21.1432 10.9429 21.0469L0.232022 17.4903Z" fill="#E1E1E1"/>
</svg>
