<svg width="24" height="24" viewBox="0 0 24 24" fill="none" xmlns="http://www.w3.org/2000/svg">
<path fill-rule="evenodd" clip-rule="evenodd" d="M0 12C-2.34822e-08 13.5759 0.310389 15.1363 0.913445 16.5922C1.5165 18.0481 2.40042 19.371 3.51472 20.4853C4.62902 21.5996 5.95189 22.4835 7.4078 23.0866C8.86371 23.6896 10.4241 24 12 24C13.5759 24 15.1363 23.6896 16.5922 23.0866C18.0481 22.4835 19.371 21.5996 20.4853 20.4853C21.5996 19.371 22.4835 18.0481 23.0866 16.5922C23.6896 15.1363 24 13.5759 24 12C24 8.8174 22.7357 5.76516 20.4853 3.51472C18.2348 1.26428 15.1826 0 12 0C8.8174 0 5.76515 1.26428 3.51472 3.51472C1.26428 5.76516 4.74244e-08 8.8174 0 12Z" fill="#0C0C4F"/>
<path fill-rule="evenodd" clip-rule="evenodd" d="M6.70537 9.17332L7.00137 8.25866C7.03136 8.1673 7.08286 8.08448 7.15155 8.01719C7.22023 7.9499 7.30408 7.9001 7.39604 7.87199L8.31604 7.58799C8.34385 7.57944 8.36818 7.5622 8.38547 7.53881C8.40276 7.51541 8.41209 7.48708 8.41209 7.45799C8.41209 7.4289 8.40276 7.40057 8.38547 7.37717C8.36818 7.35377 8.34385 7.33653 8.31604 7.32799L7.40137 7.03199C7.31016 7.00213 7.22744 6.95083 7.16016 6.88239C7.09288 6.81395 7.043 6.73036 7.0147 6.63866L6.73071 5.71866C6.69204 5.59199 6.51204 5.59066 6.47204 5.71732L6.17604 6.63199C6.14623 6.72359 6.09481 6.80668 6.02611 6.87421C5.95742 6.94175 5.87347 6.99175 5.78137 7.01999L4.86137 7.30266C4.83352 7.31106 4.80909 7.32817 4.79168 7.35148C4.77427 7.37479 4.7648 7.40307 4.76465 7.43216C4.7645 7.46126 4.77369 7.48963 4.79085 7.51312C4.80802 7.5366 4.83227 7.55397 4.86004 7.56265L5.7747 7.85865C5.86656 7.88828 5.94991 7.93962 6.01769 8.00833C6.08546 8.07703 6.13567 8.16107 6.16404 8.25332L6.44537 9.17199C6.48537 9.29865 6.66404 9.29999 6.70537 9.17332Z" fill="#FAFAFA"/>
<path fill-rule="evenodd" clip-rule="evenodd" d="M21.2413 8.64133C20.8627 8.21733 20.2707 7.97867 19.6947 7.88133C19.1112 7.78916 18.5164 7.79457 17.9347 7.89733C16.7773 8.09333 15.7253 8.57333 14.8067 9.164C14.3307 9.45467 13.924 9.79067 13.5027 10.1333C13.3 10.3067 13.116 10.4907 12.9227 10.672L12.396 11.196C11.8653 11.7571 11.3044 12.289 10.716 12.7893C10.168 13.2387 9.65601 13.58 9.15068 13.8173C8.64668 14.0573 8.10668 14.1987 7.40402 14.2213C6.70668 14.2453 5.88135 14.12 5.00001 13.912C4.11335 13.7053 3.18135 13.4107 2.14001 13.1573C2.50451 14.1538 3.05165 15.0735 3.75335 15.8693C4.46268 16.6693 5.35068 17.3973 6.48935 17.8773C7.70527 18.3915 9.04707 18.5308 10.3427 18.2773C11.6667 18.0227 12.828 17.4107 13.7667 16.7027C14.6527 16.0207 15.4413 15.2209 16.1107 14.3253C16.288 14.0907 16.3813 13.96 16.5093 13.7773L16.864 13.252C17.1093 12.9267 17.3347 12.5587 17.5773 12.236C18.056 11.5627 18.5267 10.8893 19.0747 10.2693C19.3493 9.95467 19.64 9.65467 19.9827 9.36533C20.1547 9.224 20.34 9.08533 20.544 8.96133C20.752 8.828 20.9707 8.72133 21.2413 8.64133Z" fill="url(#paint0_linear_7_558)"/>
<path fill-rule="evenodd" clip-rule="evenodd" d="M21.2413 8.63999C20.8347 7.61332 20.0773 6.74799 19.0613 6.10932C17.9218 5.41801 16.5656 5.17606 15.2573 5.43065C14.5707 5.56399 13.9053 5.81999 13.3213 6.15999C12.757 6.49056 12.2353 6.88909 11.768 7.34665C11.5487 7.56465 11.3379 7.79104 11.136 8.02532L10.6093 8.69599L9.79601 9.77599C8.76135 11.1653 7.64535 12.7933 5.81468 13.276C4.01735 13.7493 3.23735 13.3293 2.14001 13.156C2.34001 13.6747 2.58935 14.1773 2.92668 14.62C3.25735 15.0707 3.64668 15.4947 4.13335 15.8587C4.37868 16.032 4.63735 16.2053 4.92535 16.352C5.21068 16.492 5.52001 16.6173 5.84935 16.7107C6.5352 16.8996 7.25193 16.9495 7.95735 16.8573C8.65239 16.7602 9.32673 16.5494 9.95335 16.2333C10.5228 15.947 11.0578 15.5967 11.548 15.1893C12.4094 14.4629 13.1711 13.6259 13.8133 12.7C14.1191 12.2671 14.4009 11.8298 14.6587 11.388L14.9613 10.8653C15.0547 10.7107 15.1489 10.5604 15.244 10.4147C15.6293 9.83865 16.0053 9.37732 16.4627 9.02932C16.9147 8.67465 17.5427 8.41199 18.3813 8.34932C19.2173 8.28799 20.1813 8.40265 21.2413 8.64132" fill="#FAFAFA"/>
<path fill-rule="evenodd" clip-rule="evenodd" d="M16.7214 17.18C16.7156 17.3632 16.7468 17.5456 16.8129 17.7165C16.8791 17.8874 16.9789 18.0432 17.1064 18.1748C17.2339 18.3064 17.3866 18.411 17.5553 18.4824C17.7241 18.5539 17.9055 18.5907 18.0887 18.5907C18.2719 18.5907 18.4533 18.5539 18.6221 18.4824C18.7908 18.411 18.9435 18.3064 19.071 18.1748C19.1985 18.0432 19.2983 17.8874 19.3645 17.7165C19.4306 17.5456 19.4618 17.3632 19.456 17.18C19.4449 16.8248 19.296 16.4878 19.0408 16.2404C18.7856 15.993 18.4441 15.8547 18.0887 15.8547C17.7333 15.8547 17.3918 15.993 17.1366 16.2404C16.8814 16.4878 16.7325 16.8248 16.7214 17.18Z" fill="#EC796B"/>
<defs>
<linearGradient id="paint0_linear_7_558" x1="23.8707" y1="1.056" x2="-22.1427" y2="14.3227" gradientUnits="userSpaceOnUse">
<stop stop-color="#EC796B"/>
<stop offset="1" stop-color="#D672EF"/>
</linearGradient>
</defs>
</svg>
