<svg width="24" height="22" viewBox="0 0 24 22" fill="none" xmlns="http://www.w3.org/2000/svg">
<path d="M23.548 4.62667L13.0867 21.2853C12.9592 21.4877 12.7823 21.6543 12.5727 21.7695C12.3631 21.8847 12.1277 21.9448 11.8885 21.944C11.6493 21.9432 11.4142 21.8816 11.2054 21.765C10.9966 21.6483 10.8208 21.4805 10.6947 21.2773L0.437354 4.61867C0.149459 4.15235 -0.00204332 3.6147 2.08138e-05 3.06667C0.0123053 2.25708 0.345652 1.48552 0.926746 0.921677C1.50784 0.357836 2.28909 0.0478894 3.09869 0.0600041H20.9147C22.6174 0.0586708 24 1.4 24 3.05867C24 3.60934 23.8454 4.15334 23.548 4.62667ZM2.95735 4.06667L10.588 15.8347V2.88267H3.75469C2.96535 2.88267 2.61202 3.40534 2.95735 4.06934M13.4107 15.8373L21.044 4.06667C21.3974 3.404 21.036 2.88 20.2454 2.88H13.4134L13.4107 15.8373Z" fill="#0088CC"/>
</svg>
