<svg width="24" height="22" viewBox="0 0 24 22" fill="none" xmlns="http://www.w3.org/2000/svg">
<path d="M3.768 12.132C3.52804 10.2565 3.88937 8.35313 4.8 6.69601C5.5108 5.39804 6.54693 4.30723 7.80667 3.53068C9.0465 2.76963 10.4693 2.35863 11.924 2.34135C13.3781 2.32688 14.8089 2.70704 16.064 3.44135L17.9653 2.43068C16.4713 1.28626 14.6794 0.596212 12.8037 0.442998C10.928 0.289784 9.04791 0.679884 7.388 1.56668C5.70418 2.46894 4.30342 3.82031 3.34133 5.47068C2.22081 7.3854 1.70928 9.59569 1.87467 11.808C1.904 12.1853 1.82267 12.564 1.644 12.8973C1.46533 13.2293 1.19733 13.4973 0.872 13.6707L0 14.1333V16.296L24 3.54135V1.38135L3.768 12.132ZM24 5.70668L5.05333 15.768L0 18.4533V20.6147L20.2373 9.86135C20.2844 10.2391 20.308 10.6191 20.308 11.0013C20.3097 12.5078 19.9304 13.9902 19.2053 15.3107C18.4936 16.6096 17.456 17.701 16.1947 18.4773C14.9533 19.2373 13.528 19.6493 12.072 19.664C10.6164 19.6769 9.18458 19.2945 7.92933 18.5573L7.828 18.6133L6.03467 19.5667C7.53426 20.7071 9.32794 21.3962 11.2053 21.5533C13.0773 21.7053 14.9536 21.316 16.6107 20.432C18.294 19.5308 19.6947 18.1809 20.6573 16.532C21.7794 14.615 22.291 12.4017 22.124 10.1867C22.0973 9.80935 22.1773 9.43201 22.356 9.09868C22.5301 8.76986 22.7984 8.50056 23.1267 8.32535L24 7.86268V5.70668Z" fill="#E1E1E1"/>
</svg>
