<svg width="357" height="271" viewBox="0 0 357 271" fill="none" xmlns="http://www.w3.org/2000/svg">
<mask id="mask0_118_1461" style="mask-type:alpha" maskUnits="userSpaceOnUse" x="58" y="105" width="334" height="240">
<path d="M189.927 176.097C191.477 156.254 184.139 135.894 167.913 121.424C143.006 99.3073 104.766 99.514 80.0646 122.148C52.1598 147.572 51.4363 190.876 77.7909 217.231C92.0533 231.39 111.07 237.798 129.673 236.248C131.844 236.144 134.117 235.834 136.288 235.421C137.941 234.904 139.492 234.491 141.145 234.284C151.584 232.734 162.642 235.938 170.704 243.999C174.011 247.306 176.491 251.027 178.145 255.058C179.488 258.055 180.109 261.259 180.419 264.566C180.522 265.496 180.625 266.426 180.832 267.356C181.556 271.18 182.899 274.901 184.966 278.415C186.413 280.792 188.273 283.169 190.34 285.236C203.983 298.982 226.307 298.672 239.742 284.513C251.834 271.697 252.144 251.337 240.466 238.211C237.985 235.317 235.091 233.044 232.094 231.287C228.58 229.22 224.86 227.876 221.036 227.153C220.106 226.946 219.175 226.843 218.245 226.739C215.041 226.326 211.734 225.706 208.737 224.466C204.706 222.812 200.986 220.332 197.678 217.024C190.03 209.48 186.723 199.041 187.757 189.119C187.826 188.43 187.986 187.741 188.147 187.052C188.227 186.708 188.308 186.363 188.377 186.019C188.687 184.882 188.893 183.849 189.1 182.712C189.41 180.541 189.72 178.268 189.927 176.097Z" fill="url(#paint0_linear_118_1461)"/>
<path d="M260.073 273.903C258.523 293.746 265.861 314.106 282.087 328.576C306.995 350.693 345.235 350.486 369.935 327.852C397.84 302.428 398.564 259.124 372.209 232.769C357.947 218.61 338.93 212.202 320.327 213.752C318.156 213.856 315.883 214.166 313.712 214.579C312.059 215.096 310.509 215.509 308.855 215.716C298.416 217.266 287.358 214.062 279.296 206.001C275.989 202.694 273.509 198.973 271.855 194.942C270.512 191.945 269.891 188.741 269.581 185.434C269.478 184.504 269.375 183.574 269.168 182.644C268.445 178.82 267.101 175.099 265.034 171.585C263.587 169.208 261.727 166.831 259.66 164.764C246.017 151.018 223.693 151.328 210.258 165.487C198.166 178.303 197.856 198.663 209.534 211.789C212.015 214.682 214.909 216.956 217.906 218.713C221.42 220.78 225.14 222.124 228.964 222.847C229.895 223.054 230.825 223.157 231.755 223.261C234.959 223.674 238.266 224.294 241.263 225.534C245.294 227.188 249.015 229.668 252.322 232.976C259.97 240.52 263.277 250.959 262.243 260.88C262.175 261.569 262.014 262.258 261.853 262.947C261.773 263.292 261.692 263.636 261.623 263.981C261.313 265.118 261.107 266.151 260.9 267.288C260.59 269.459 260.28 271.732 260.073 273.903Z" fill="url(#paint1_linear_118_1461)"/>
<path d="M307.781 206.795C291.784 206.795 278.815 193.827 278.815 177.83C278.815 161.833 291.784 148.865 307.781 148.865C323.778 148.865 336.746 161.833 336.746 177.83C336.746 193.827 323.778 206.795 307.781 206.795Z" fill="url(#paint2_linear_118_1461)"/>
<path d="M116.609 273.002C116.609 288.999 129.577 301.967 145.574 301.967C161.572 301.967 174.54 288.999 174.54 273.002C174.54 257.005 161.572 244.037 145.574 244.037C129.577 244.037 116.609 257.005 116.609 273.002Z" fill="url(#paint3_linear_118_1461)"/>
</mask>
<g mask="url(#mask0_118_1461)">
<g filter="url(#filter0_ii_118_1461)">
<path fill-rule="evenodd" clip-rule="evenodd" d="M260.073 273.903C258.523 293.746 265.861 314.106 282.087 328.576C306.994 350.693 345.234 350.486 369.935 327.852C397.84 302.428 398.564 259.124 372.209 232.769C357.947 218.61 338.93 212.202 320.327 213.752C318.156 213.856 315.883 214.166 313.712 214.579C312.059 215.096 310.508 215.509 308.855 215.716C298.416 217.266 287.358 214.062 279.296 206.001C275.989 202.694 273.509 198.973 271.855 194.942C270.511 191.945 269.891 188.741 269.581 185.434C269.478 184.504 269.375 183.574 269.168 182.644C268.444 178.82 267.101 175.099 265.034 171.585C263.587 169.208 261.727 166.831 259.66 164.764C246.017 151.018 223.693 151.328 210.258 165.487C198.166 178.303 197.855 198.663 209.534 211.789C212.015 214.682 214.908 216.956 217.906 218.713C221.42 220.78 225.14 222.124 228.964 222.847C229.894 223.054 230.825 223.157 231.755 223.261C234.959 223.674 238.266 224.294 241.263 225.534C245.294 227.188 249.014 229.668 252.322 232.976C259.97 240.52 263.277 250.959 262.243 260.88C262.174 261.569 262.014 262.259 261.853 262.948C261.772 263.292 261.692 263.636 261.623 263.981C261.313 265.118 261.106 266.151 260.9 267.288C260.59 269.459 260.28 271.732 260.073 273.903ZM189.927 176.097C191.477 156.254 184.139 135.894 167.913 121.424C143.005 99.3073 104.765 99.514 80.0643 122.148C52.1595 147.572 51.436 190.876 77.7906 217.231C92.0531 231.39 111.07 237.798 129.673 236.248C131.843 236.144 134.117 235.834 136.287 235.421C137.941 234.904 139.491 234.491 141.145 234.284C151.583 232.734 162.642 235.938 170.703 243.999C174.011 247.306 176.491 251.027 178.145 255.058C179.488 258.055 180.108 261.259 180.418 264.566C180.522 265.496 180.625 266.426 180.832 267.356C181.555 271.18 182.899 274.901 184.966 278.415C186.413 280.792 188.273 283.169 190.34 285.236C203.982 298.982 226.306 298.672 239.742 284.513C251.834 271.697 252.144 251.337 240.465 238.211C237.985 235.317 235.091 233.044 232.094 231.287C228.58 229.22 224.859 227.876 221.035 227.153C220.105 226.946 219.175 226.843 218.245 226.739C215.041 226.326 211.734 225.706 208.737 224.466C204.706 222.812 200.985 220.332 197.678 217.024C190.03 209.48 186.723 199.041 187.756 189.119C187.825 188.43 187.986 187.741 188.147 187.052C188.227 186.708 188.308 186.363 188.376 186.019C188.686 184.882 188.893 183.849 189.1 182.712C189.41 180.541 189.72 178.268 189.927 176.097ZM307.78 206.795C291.783 206.795 278.815 193.827 278.815 177.83C278.815 161.833 291.783 148.865 307.78 148.865C323.777 148.865 336.746 161.833 336.746 177.83C336.746 193.827 323.777 206.795 307.78 206.795ZM116.609 273.002C116.609 288.999 129.577 301.967 145.574 301.967C161.571 301.967 174.54 288.999 174.54 273.002C174.54 257.005 161.571 244.037 145.574 244.037C129.577 244.037 116.609 257.005 116.609 273.002Z" fill="url(#paint4_radial_118_1461)"/>
<path fill-rule="evenodd" clip-rule="evenodd" d="M260.073 273.903C258.523 293.746 265.861 314.106 282.087 328.576C306.994 350.693 345.234 350.486 369.935 327.852C397.84 302.428 398.564 259.124 372.209 232.769C357.947 218.61 338.93 212.202 320.327 213.752C318.156 213.856 315.883 214.166 313.712 214.579C312.059 215.096 310.508 215.509 308.855 215.716C298.416 217.266 287.358 214.062 279.296 206.001C275.989 202.694 273.509 198.973 271.855 194.942C270.511 191.945 269.891 188.741 269.581 185.434C269.478 184.504 269.375 183.574 269.168 182.644C268.444 178.82 267.101 175.099 265.034 171.585C263.587 169.208 261.727 166.831 259.66 164.764C246.017 151.018 223.693 151.328 210.258 165.487C198.166 178.303 197.855 198.663 209.534 211.789C212.015 214.682 214.908 216.956 217.906 218.713C221.42 220.78 225.14 222.124 228.964 222.847C229.894 223.054 230.825 223.157 231.755 223.261C234.959 223.674 238.266 224.294 241.263 225.534C245.294 227.188 249.014 229.668 252.322 232.976C259.97 240.52 263.277 250.959 262.243 260.88C262.174 261.569 262.014 262.259 261.853 262.948C261.772 263.292 261.692 263.636 261.623 263.981C261.313 265.118 261.106 266.151 260.9 267.288C260.59 269.459 260.28 271.732 260.073 273.903ZM189.927 176.097C191.477 156.254 184.139 135.894 167.913 121.424C143.005 99.3073 104.765 99.514 80.0643 122.148C52.1595 147.572 51.436 190.876 77.7906 217.231C92.0531 231.39 111.07 237.798 129.673 236.248C131.843 236.144 134.117 235.834 136.287 235.421C137.941 234.904 139.491 234.491 141.145 234.284C151.583 232.734 162.642 235.938 170.703 243.999C174.011 247.306 176.491 251.027 178.145 255.058C179.488 258.055 180.108 261.259 180.418 264.566C180.522 265.496 180.625 266.426 180.832 267.356C181.555 271.18 182.899 274.901 184.966 278.415C186.413 280.792 188.273 283.169 190.34 285.236C203.982 298.982 226.306 298.672 239.742 284.513C251.834 271.697 252.144 251.337 240.465 238.211C237.985 235.317 235.091 233.044 232.094 231.287C228.58 229.22 224.859 227.876 221.035 227.153C220.105 226.946 219.175 226.843 218.245 226.739C215.041 226.326 211.734 225.706 208.737 224.466C204.706 222.812 200.985 220.332 197.678 217.024C190.03 209.48 186.723 199.041 187.756 189.119C187.825 188.43 187.986 187.741 188.147 187.052C188.227 186.708 188.308 186.363 188.376 186.019C188.686 184.882 188.893 183.849 189.1 182.712C189.41 180.541 189.72 178.268 189.927 176.097ZM307.78 206.795C291.783 206.795 278.815 193.827 278.815 177.83C278.815 161.833 291.783 148.865 307.78 148.865C323.777 148.865 336.746 161.833 336.746 177.83C336.746 193.827 323.777 206.795 307.78 206.795ZM116.609 273.002C116.609 288.999 129.577 301.967 145.574 301.967C161.571 301.967 174.54 288.999 174.54 273.002C174.54 257.005 161.571 244.037 145.574 244.037C129.577 244.037 116.609 257.005 116.609 273.002Z" fill="#1F2E7E" fill-opacity="0.2"/>
</g>
</g>
<defs>
<filter id="filter0_ii_118_1461" x="49.3889" y="92.6877" width="355.221" height="268.367" filterUnits="userSpaceOnUse" color-interpolation-filters="sRGB">
<feFlood flood-opacity="0" result="BackgroundImageFix"/>
<feBlend mode="normal" in="SourceGraphic" in2="BackgroundImageFix" result="shape"/>
<feColorMatrix in="SourceAlpha" type="matrix" values="0 0 0 0 0 0 0 0 0 0 0 0 0 0 0 0 0 0 127 0" result="hardAlpha"/>
<feOffset dx="-9.17579" dy="16.0576"/>
<feGaussianBlur stdDeviation="19.4986"/>
<feComposite in2="hardAlpha" operator="arithmetic" k2="-1" k3="1"/>
<feColorMatrix type="matrix" values="0 0 0 0 1 0 0 0 0 1 0 0 0 0 1 0 0 0 0.87 0"/>
<feBlend mode="lighten" in2="shape" result="effect1_innerShadow_118_1461"/>
<feColorMatrix in="SourceAlpha" type="matrix" values="0 0 0 0 0 0 0 0 0 0 0 0 0 0 0 0 0 0 127 0" result="hardAlpha"/>
<feOffset dx="13.175" dy="-12.315"/>
<feGaussianBlur stdDeviation="7.68525"/>
<feComposite in2="hardAlpha" operator="arithmetic" k2="-1" k3="1"/>
<feColorMatrix type="matrix" values="0 0 0 0 0.168627 0 0 0 0 0.180392 0 0 0 0 0.239216 0 0 0 0.9 0"/>
<feBlend mode="multiply" in2="effect1_innerShadow_118_1461" result="effect2_innerShadow_118_1461"/>
</filter>
<linearGradient id="paint0_linear_118_1461" x1="115" y1="399" x2="343" y2="159" gradientUnits="userSpaceOnUse">
<stop offset="0.243977" stop-opacity="0"/>
<stop offset="1"/>
</linearGradient>
<linearGradient id="paint1_linear_118_1461" x1="115" y1="399" x2="343" y2="159" gradientUnits="userSpaceOnUse">
<stop offset="0.243977" stop-opacity="0"/>
<stop offset="1"/>
</linearGradient>
<linearGradient id="paint2_linear_118_1461" x1="115" y1="399" x2="343" y2="159" gradientUnits="userSpaceOnUse">
<stop offset="0.243977" stop-opacity="0"/>
<stop offset="1"/>
</linearGradient>
<linearGradient id="paint3_linear_118_1461" x1="115" y1="399" x2="343" y2="159" gradientUnits="userSpaceOnUse">
<stop offset="0.243977" stop-opacity="0"/>
<stop offset="1"/>
</linearGradient>
<radialGradient id="paint4_radial_118_1461" cx="0" cy="0" r="1" gradientUnits="userSpaceOnUse" gradientTransform="translate(418.603 186.332) rotate(178.087) scale(126.064 236.535)">
<stop stop-color="#949494"/>
<stop offset="0.635171" stop-color="#181818"/>
<stop offset="1" stop-color="#1D1D1D"/>
</radialGradient>
</defs>
</svg>
