<svg width="186" height="221" viewBox="0 0 186 221" fill="none" xmlns="http://www.w3.org/2000/svg">
<g filter="url(#filter0_dd_85_755)">
<circle cx="105.387" cy="192.887" r="12.387" fill="url(#paint0_linear_85_755)" shape-rendering="crispEdges"/>
</g>
<g filter="url(#filter1_dd_85_755)">
<circle cx="150.091" cy="166.578" r="9.16405" fill="url(#paint1_linear_85_755)" shape-rendering="crispEdges"/>
</g>
<circle cx="93" cy="93" r="93" fill="url(#paint2_radial_85_755)" fill-opacity="0.6"/>
<g filter="url(#filter2_d_85_755)">
<ellipse cx="112.13" cy="113.862" rx="55.721" ry="34.9077" fill="url(#paint3_linear_85_755)" fill-opacity="0.5" shape-rendering="crispEdges"/>
<path d="M167.615 113.862C167.615 123.392 161.449 132.054 151.406 138.346C141.365 144.636 127.48 148.535 112.13 148.535C96.7799 148.535 82.8945 144.636 72.8539 138.346C62.8101 132.054 56.644 123.392 56.644 113.862C56.644 104.333 62.8101 95.6704 72.8539 89.3782C82.8945 83.0881 96.7799 79.1899 112.13 79.1899C127.48 79.1899 141.365 83.0881 151.406 89.3782C161.449 95.6704 167.615 104.333 167.615 113.862Z" stroke="url(#paint4_linear_85_755)" stroke-opacity="0.6" stroke-width="0.470587" shape-rendering="crispEdges"/>
</g>
<circle cx="112.129" cy="81.3123" r="70.691" fill="url(#paint5_radial_85_755)"/>
<ellipse cx="112.129" cy="93.0001" rx="69.1123" ry="40.432" fill="url(#paint6_linear_85_755)" fill-opacity="0.5"/>
<path d="M181.006 93.0001C181.006 104.047 173.35 114.091 160.88 121.387C148.415 128.679 131.179 133.197 112.129 133.197C93.0781 133.197 75.8426 128.679 63.3777 121.387C50.9072 114.091 43.2517 104.047 43.2517 93.0001C43.2517 81.9532 50.9072 71.909 63.3777 64.6135C75.8426 57.3213 93.0781 52.8034 112.129 52.8034C131.179 52.8034 148.415 57.3213 160.88 64.6135C173.35 71.909 181.006 81.9532 181.006 93.0001Z" stroke="url(#paint7_linear_85_755)" stroke-opacity="0.6" stroke-width="0.470587"/>
<circle cx="112.129" cy="81.3119" r="52.3622" fill="url(#paint8_radial_85_755)"/>
<circle cx="112.129" cy="81.3119" r="52.3622" fill="url(#paint9_radial_85_755)"/>
<g filter="url(#filter3_d_85_755)">
<ellipse cx="112.129" cy="67.8984" rx="68.4093" ry="39.497" fill="url(#paint10_linear_85_755)" fill-opacity="0.5" shape-rendering="crispEdges"/>
<path d="M180.303 67.8984C180.303 78.6855 172.728 88.4962 160.384 95.6232C148.046 102.747 130.986 107.16 112.129 107.16C93.272 107.16 76.2118 102.747 63.8739 95.6232C51.5298 88.4962 43.9549 78.6855 43.9549 67.8984C43.9549 57.1112 51.5298 47.3006 63.8739 40.1735C76.2118 33.0501 93.272 28.6367 112.129 28.6367C130.986 28.6367 148.046 33.0501 160.384 40.1735C172.728 47.3006 180.303 57.1112 180.303 67.8984Z" stroke="url(#paint11_linear_85_755)" stroke-opacity="0.6" stroke-width="0.470587" shape-rendering="crispEdges"/>
</g>
<g filter="url(#filter4_d_85_755)">
<ellipse cx="112.129" cy="47.5028" rx="53.0837" ry="34.3119" fill="url(#paint12_linear_85_755)" fill-opacity="0.5" shape-rendering="crispEdges"/>
<path d="M164.977 47.5028C164.977 56.8712 159.102 65.3846 149.537 71.5673C139.974 77.7485 126.749 81.5794 112.129 81.5794C97.5085 81.5794 84.2834 77.7485 74.7205 71.5673C65.1552 65.3846 59.2802 56.8712 59.2802 47.5028C59.2802 38.1344 65.1552 29.621 74.7205 23.4382C84.2834 17.257 97.5085 13.4262 112.129 13.4262C126.749 13.4262 139.974 17.257 149.537 23.4382C159.102 29.621 164.977 38.1344 164.977 47.5028Z" stroke="url(#paint13_linear_85_755)" stroke-opacity="0.6" stroke-width="0.470587" shape-rendering="crispEdges"/>
</g>
<ellipse cx="112.13" cy="35.5852" rx="33.0406" ry="22.3943" fill="url(#paint14_linear_85_755)" fill-opacity="0.5"/>
<path d="M144.935 35.5852C144.935 41.6679 141.298 47.2019 135.361 51.2256C129.426 55.2484 121.213 57.7442 112.13 57.7442C103.047 57.7442 94.8338 55.2484 88.8985 51.2256C82.9619 47.2019 79.3244 41.6679 79.3244 35.5852C79.3244 29.5025 82.9619 23.9685 88.8985 19.9448C94.8338 15.922 103.047 13.4262 112.13 13.4262C121.213 13.4262 129.426 15.922 135.361 19.9448C141.298 23.9685 144.935 29.5025 144.935 35.5852Z" stroke="url(#paint15_linear_85_755)" stroke-opacity="0.6" stroke-width="0.470587"/>
<ellipse cx="112.129" cy="27.9405" rx="19.1289" ry="13.1619" fill="url(#paint16_linear_85_755)" fill-opacity="0.5"/>
<path d="M131.023 27.9405C131.023 31.4753 128.941 34.7012 125.522 37.0535C122.104 39.4051 117.37 40.8671 112.129 40.8671C106.888 40.8671 102.154 39.4051 98.7362 37.0535C95.3175 34.7012 93.2354 31.4753 93.2354 27.9405C93.2354 24.4056 95.3175 21.1797 98.7362 18.8274C102.154 16.4759 106.888 15.0139 112.129 15.0139C117.37 15.0139 122.104 16.4759 125.522 18.8274C128.941 21.1797 131.023 24.4056 131.023 27.9405Z" stroke="url(#paint17_linear_85_755)" stroke-opacity="0.6" stroke-width="0.470587"/>
<circle cx="112.129" cy="81.3121" r="70.691" fill="url(#paint18_radial_85_755)" fill-opacity="0.3"/>
<defs>
<filter id="filter0_dd_85_755" x="76.5295" y="163.088" width="57.7151" height="57.7153" filterUnits="userSpaceOnUse" color-interpolation-filters="sRGB">
<feFlood flood-opacity="0" result="BackgroundImageFix"/>
<feColorMatrix in="SourceAlpha" type="matrix" values="0 0 0 0 0 0 0 0 0 0 0 0 0 0 0 0 0 0 127 0" result="hardAlpha"/>
<feOffset dy="-0.941174"/>
<feGaussianBlur stdDeviation="8.23527"/>
<feComposite in2="hardAlpha" operator="out"/>
<feColorMatrix type="matrix" values="0 0 0 0 0.371081 0 0 0 0 0.235903 0 0 0 0 0.658333 0 0 0 1 0"/>
<feBlend mode="normal" in2="BackgroundImageFix" result="effect1_dropShadow_85_755"/>
<feColorMatrix in="SourceAlpha" type="matrix" values="0 0 0 0 0 0 0 0 0 0 0 0 0 0 0 0 0 0 127 0" result="hardAlpha"/>
<feOffset dy="-0.941174"/>
<feGaussianBlur stdDeviation="4.70587"/>
<feComposite in2="hardAlpha" operator="out"/>
<feColorMatrix type="matrix" values="0 0 0 0 0.48825 0 0 0 0 0.372778 0 0 0 0 0.733333 0 0 0 1 0"/>
<feBlend mode="normal" in2="effect1_dropShadow_85_755" result="effect2_dropShadow_85_755"/>
<feBlend mode="normal" in="SourceGraphic" in2="effect2_dropShadow_85_755" result="shape"/>
</filter>
<filter id="filter1_dd_85_755" x="124.456" y="140.002" width="51.2692" height="51.2692" filterUnits="userSpaceOnUse" color-interpolation-filters="sRGB">
<feFlood flood-opacity="0" result="BackgroundImageFix"/>
<feColorMatrix in="SourceAlpha" type="matrix" values="0 0 0 0 0 0 0 0 0 0 0 0 0 0 0 0 0 0 127 0" result="hardAlpha"/>
<feOffset dy="-0.941174"/>
<feGaussianBlur stdDeviation="8.23527"/>
<feComposite in2="hardAlpha" operator="out"/>
<feColorMatrix type="matrix" values="0 0 0 0 0.371081 0 0 0 0 0.235903 0 0 0 0 0.658333 0 0 0 1 0"/>
<feBlend mode="normal" in2="BackgroundImageFix" result="effect1_dropShadow_85_755"/>
<feColorMatrix in="SourceAlpha" type="matrix" values="0 0 0 0 0 0 0 0 0 0 0 0 0 0 0 0 0 0 127 0" result="hardAlpha"/>
<feOffset dy="-0.941174"/>
<feGaussianBlur stdDeviation="4.70587"/>
<feComposite in2="hardAlpha" operator="out"/>
<feColorMatrix type="matrix" values="0 0 0 0 0.48825 0 0 0 0 0.372778 0 0 0 0 0.733333 0 0 0 1 0"/>
<feBlend mode="normal" in2="effect1_dropShadow_85_755" result="effect2_dropShadow_85_755"/>
<feBlend mode="normal" in="SourceGraphic" in2="effect2_dropShadow_85_755" result="shape"/>
</filter>
<filter id="filter2_d_85_755" x="51.7028" y="74.7193" width="120.854" height="79.2272" filterUnits="userSpaceOnUse" color-interpolation-filters="sRGB">
<feFlood flood-opacity="0" result="BackgroundImageFix"/>
<feColorMatrix in="SourceAlpha" type="matrix" values="0 0 0 0 0 0 0 0 0 0 0 0 0 0 0 0 0 0 127 0" result="hardAlpha"/>
<feOffset dy="0.470587"/>
<feGaussianBlur stdDeviation="2.35293"/>
<feComposite in2="hardAlpha" operator="out"/>
<feColorMatrix type="matrix" values="0 0 0 0 0.440043 0 0 0 0 0.20092 0 0 0 0 0.679167 0 0 0 0.3 0"/>
<feBlend mode="normal" in2="BackgroundImageFix" result="effect1_dropShadow_85_755"/>
<feBlend mode="normal" in="SourceGraphic" in2="effect1_dropShadow_85_755" result="shape"/>
</filter>
<filter id="filter3_d_85_755" x="41.3667" y="26.519" width="141.524" height="83.6998" filterUnits="userSpaceOnUse" color-interpolation-filters="sRGB">
<feFlood flood-opacity="0" result="BackgroundImageFix"/>
<feColorMatrix in="SourceAlpha" type="matrix" values="0 0 0 0 0 0 0 0 0 0 0 0 0 0 0 0 0 0 127 0" result="hardAlpha"/>
<feOffset dy="0.470587"/>
<feGaussianBlur stdDeviation="1.17647"/>
<feComposite in2="hardAlpha" operator="out"/>
<feColorMatrix type="matrix" values="0 0 0 0 0.369333 0 0 0 0 0.0916667 0 0 0 0 0.5 0 0 0 0.15 0"/>
<feBlend mode="normal" in2="BackgroundImageFix" result="effect1_dropShadow_85_755"/>
<feBlend mode="normal" in="SourceGraphic" in2="effect1_dropShadow_85_755" result="shape"/>
</filter>
<filter id="filter4_d_85_755" x="55.9861" y="10.1321" width="113.226" height="75.6826" filterUnits="userSpaceOnUse" color-interpolation-filters="sRGB">
<feFlood flood-opacity="0" result="BackgroundImageFix"/>
<feColorMatrix in="SourceAlpha" type="matrix" values="0 0 0 0 0 0 0 0 0 0 0 0 0 0 0 0 0 0 127 0" result="hardAlpha"/>
<feOffset dx="0.470587" dy="0.470587"/>
<feGaussianBlur stdDeviation="1.7647"/>
<feComposite in2="hardAlpha" operator="out"/>
<feColorMatrix type="matrix" values="0 0 0 0 0.440043 0 0 0 0 0.20092 0 0 0 0 0.679167 0 0 0 0.2 0"/>
<feBlend mode="normal" in2="BackgroundImageFix" result="effect1_dropShadow_85_755"/>
<feBlend mode="normal" in="SourceGraphic" in2="effect1_dropShadow_85_755" result="shape"/>
</filter>
<linearGradient id="paint0_linear_85_755" x1="105.387" y1="175.114" x2="105.387" y2="218.559" gradientUnits="userSpaceOnUse">
<stop stop-color="white"/>
<stop offset="0.223958" stop-color="#6BE4FF"/>
<stop offset="0.623188" stop-color="#371B73" stop-opacity="0.6"/>
<stop offset="1" stop-color="#0A1153" stop-opacity="0.4"/>
</linearGradient>
<linearGradient id="paint1_linear_85_755" x1="150.091" y1="153.429" x2="150.091" y2="185.57" gradientUnits="userSpaceOnUse">
<stop stop-color="white"/>
<stop offset="0.223958" stop-color="#6BE4FF"/>
<stop offset="0.623188" stop-color="#371B73" stop-opacity="0.6"/>
<stop offset="1" stop-color="#0A1153" stop-opacity="0.4"/>
</linearGradient>
<radialGradient id="paint2_radial_85_755" cx="0" cy="0" r="1" gradientUnits="userSpaceOnUse" gradientTransform="translate(93 93) rotate(90) scale(93)">
<stop stop-color="#FF65C1"/>
<stop offset="1" stop-color="#FF65C1" stop-opacity="0"/>
</radialGradient>
<linearGradient id="paint3_linear_85_755" x1="112.13" y1="78.9546" x2="112.13" y2="148.77" gradientUnits="userSpaceOnUse">
<stop stop-color="#13154D"/>
<stop offset="1" stop-color="#8E92EE" stop-opacity="0"/>
</linearGradient>
<linearGradient id="paint4_linear_85_755" x1="139.804" y1="118.263" x2="142.958" y2="153.479" gradientUnits="userSpaceOnUse">
<stop stop-color="white" stop-opacity="0"/>
<stop offset="1" stop-color="white"/>
</linearGradient>
<radialGradient id="paint5_radial_85_755" cx="0" cy="0" r="1" gradientUnits="userSpaceOnUse" gradientTransform="translate(41.438 107.028) rotate(-19.6638) scale(150.137)">
<stop offset="0.249306" stop-color="white"/>
<stop offset="0.48315" stop-color="#FF8FED" stop-opacity="0.5"/>
<stop offset="0.627037" stop-color="#220C7A" stop-opacity="0.5"/>
</radialGradient>
<linearGradient id="paint6_linear_85_755" x1="48.6563" y1="101.593" x2="179.649" y2="86.8078" gradientUnits="userSpaceOnUse">
<stop stop-color="white"/>
<stop offset="1" stop-color="#12178E" stop-opacity="0.4"/>
</linearGradient>
<linearGradient id="paint7_linear_85_755" x1="123.102" y1="150.568" x2="102.191" y2="100.679" gradientUnits="userSpaceOnUse">
<stop offset="0.0011346" stop-color="white"/>
<stop offset="1" stop-color="white" stop-opacity="0"/>
</linearGradient>
<radialGradient id="paint8_radial_85_755" cx="0" cy="0" r="1" gradientUnits="userSpaceOnUse" gradientTransform="translate(72.5245 107.901) rotate(-14.8494) scale(103.752)">
<stop offset="0.239373" stop-color="white"/>
<stop offset="0.410099" stop-color="#FFCEF1"/>
<stop offset="0.67492" stop-color="#B6B9FF"/>
<stop offset="0.861176" stop-color="#FFA8E7"/>
<stop offset="1" stop-color="white"/>
</radialGradient>
<radialGradient id="paint9_radial_85_755" cx="0" cy="0" r="1" gradientUnits="userSpaceOnUse" gradientTransform="translate(161.736 121.785) rotate(-121.724) scale(59.6579)">
<stop stop-color="#3F52FF"/>
<stop offset="1" stop-color="#3F52FF" stop-opacity="0"/>
</radialGradient>
<linearGradient id="paint10_linear_85_755" x1="45.1927" y1="65.1761" x2="180.538" y2="69.381" gradientUnits="userSpaceOnUse">
<stop stop-color="white"/>
<stop offset="1" stop-color="#5653FF" stop-opacity="0.2"/>
</linearGradient>
<linearGradient id="paint11_linear_85_755" x1="103.12" y1="135.282" x2="98.8672" y2="70.8545" gradientUnits="userSpaceOnUse">
<stop stop-color="white"/>
<stop offset="1" stop-color="white" stop-opacity="0"/>
</linearGradient>
<linearGradient id="paint12_linear_85_755" x1="112.129" y1="13.1909" x2="112.129" y2="81.8147" gradientUnits="userSpaceOnUse">
<stop stop-color="#13154D" stop-opacity="0.5"/>
<stop offset="1" stop-color="#8E92EE" stop-opacity="0"/>
</linearGradient>
<linearGradient id="paint13_linear_85_755" x1="121.407" y1="96.7131" x2="128.448" y2="20.8299" gradientUnits="userSpaceOnUse">
<stop stop-color="white"/>
<stop offset="1" stop-color="white" stop-opacity="0"/>
</linearGradient>
<linearGradient id="paint14_linear_85_755" x1="112.13" y1="13.1909" x2="112.13" y2="57.9795" gradientUnits="userSpaceOnUse">
<stop stop-color="#13154D"/>
<stop offset="1" stop-color="#8E92EE" stop-opacity="0"/>
</linearGradient>
<linearGradient id="paint15_linear_85_755" x1="125.349" y1="90.9314" x2="112.13" y2="13.1909" gradientUnits="userSpaceOnUse">
<stop stop-color="white"/>
<stop offset="1" stop-color="white" stop-opacity="0"/>
</linearGradient>
<linearGradient id="paint16_linear_85_755" x1="112.129" y1="14.7786" x2="112.129" y2="41.1024" gradientUnits="userSpaceOnUse">
<stop stop-color="#13154D"/>
<stop offset="1" stop-color="#8E92EE" stop-opacity="0"/>
</linearGradient>
<linearGradient id="paint17_linear_85_755" x1="122.458" y1="68.8558" x2="112.129" y2="14.7786" gradientUnits="userSpaceOnUse">
<stop stop-color="white"/>
<stop offset="1" stop-color="white" stop-opacity="0"/>
</linearGradient>
<radialGradient id="paint18_radial_85_755" cx="0" cy="0" r="1" gradientUnits="userSpaceOnUse" gradientTransform="translate(41.438 107.028) rotate(-19.6638) scale(150.137)">
<stop offset="0.249306" stop-color="white"/>
<stop offset="0.48315" stop-color="#FF8FED" stop-opacity="0.5"/>
<stop offset="0.627037" stop-color="#220C7A" stop-opacity="0"/>
</radialGradient>
</defs>
</svg>
