<svg width="547" height="638" viewBox="0 0 547 638" fill="none" xmlns="http://www.w3.org/2000/svg">
<path d="M399.197 334.756C396.334 371.148 364.513 398.329 328.121 395.467C291.729 392.605 264.547 360.783 267.41 324.391C270.272 287.999 302.094 260.818 338.486 263.68C374.878 266.542 402.059 298.364 399.197 334.756Z" fill="url(#paint0_linear_684_276)"/>
<path d="M384.977 332.792C385.267 358.699 364.795 376.186 339.252 371.849C313.709 367.512 292.766 342.995 292.476 317.087C292.186 291.18 312.657 273.694 338.201 278.031C363.744 282.367 384.686 306.885 384.977 332.792Z" fill="url(#paint1_radial_684_276)"/>
<path d="M381.261 350.075C386.586 379.474 368.04 395.316 339.835 385.46C311.631 375.604 284.45 343.782 279.124 314.384C273.799 284.986 292.346 269.144 320.55 278.999C348.754 288.855 375.935 320.677 381.261 350.075Z" fill="url(#paint2_radial_684_276)"/>
<path d="M301.004 357.162C290.029 344.314 281.915 329.03 279.258 314.36C276.6 299.689 279.904 288.436 287.351 282.074C294.798 275.713 306.43 274.209 320.505 279.127C334.579 284.046 348.407 294.448 359.382 307.297C370.357 320.146 378.47 335.43 381.127 350.1C383.785 364.77 380.481 376.024 373.034 382.385C365.586 388.746 353.955 390.25 339.88 385.332C325.806 380.414 311.979 370.011 301.004 357.162Z" stroke="url(#paint3_linear_684_276)" stroke-opacity="0.2" stroke-width="0.270891"/>
<mask id="path-5-inside-1_684_276" fill="white">
<path d="M311.516 289.633C309.904 268.61 324.568 258.179 346.368 266.149C370.033 274.8 393.146 301.859 397.991 326.585C402.455 349.363 389.86 362.216 369.348 357.337C369.558 354.203 369.286 350.704 368.477 346.886C363.787 324.737 342.846 300.22 321.702 292.125C318.058 290.73 314.645 289.915 311.516 289.633Z"/>
</mask>
<path d="M311.516 289.633C309.904 268.61 324.568 258.179 346.368 266.149C370.033 274.8 393.146 301.859 397.991 326.585C402.455 349.363 389.86 362.216 369.348 357.337C369.558 354.203 369.286 350.704 368.477 346.886C363.787 324.737 342.846 300.22 321.702 292.125C318.058 290.73 314.645 289.915 311.516 289.633Z" fill="url(#paint4_linear_684_276)"/>
<path d="M311.516 289.633L311.246 289.654L311.264 289.882L311.492 289.903L311.516 289.633ZM346.368 266.149L346.461 265.894L346.461 265.894L346.368 266.149ZM397.991 326.585L398.257 326.533L398.257 326.533L397.991 326.585ZM369.348 357.337L369.077 357.319L369.062 357.548L369.285 357.601L369.348 357.337ZM368.477 346.886L368.742 346.83L368.742 346.83L368.477 346.886ZM321.702 292.125L321.799 291.872L321.799 291.872L321.702 292.125ZM311.516 289.633L311.787 289.612C310.985 279.164 314.23 271.41 320.316 267.242C326.407 263.07 335.423 262.436 346.275 266.403L346.368 266.149L346.461 265.894C335.513 261.892 326.297 262.489 320.009 266.795C313.716 271.105 310.435 279.078 311.246 289.654L311.516 289.633ZM346.368 266.149L346.275 266.403C358.053 270.709 369.711 279.604 379.031 290.515C388.351 301.426 395.314 314.331 397.725 326.637L397.991 326.585L398.257 326.533C395.823 314.113 388.807 301.126 379.443 290.163C370.079 279.2 358.348 270.24 346.461 265.894L346.368 266.149ZM397.991 326.585L397.725 326.637C399.947 337.976 397.912 346.782 392.838 352.146C387.77 357.505 379.604 359.498 369.41 357.074L369.348 357.337L369.285 357.601C379.603 360.055 387.991 358.06 393.232 352.518C398.468 346.982 400.499 337.972 398.257 326.533L397.991 326.585ZM369.348 357.337L369.618 357.355C369.83 354.193 369.555 350.669 368.742 346.83L368.477 346.886L368.212 346.942C369.016 350.74 369.286 354.214 369.077 357.319L369.348 357.337ZM368.477 346.886L368.742 346.83C366.386 335.701 359.952 323.994 351.466 314.06C342.98 304.125 332.423 295.94 321.799 291.872L321.702 292.125L321.605 292.378C332.124 296.406 342.61 304.527 351.054 314.412C359.497 324.297 365.879 335.923 368.212 346.942L368.477 346.886ZM321.702 292.125L321.799 291.872C318.135 290.47 314.698 289.648 311.541 289.363L311.516 289.633L311.492 289.903C314.592 290.182 317.98 290.991 321.605 292.378L321.702 292.125Z" fill="url(#paint5_linear_684_276)" fill-opacity="0.3" mask="url(#path-5-inside-1_684_276)"/>
<g style="mix-blend-mode:lighten">
<ellipse cx="332.498" cy="295.15" rx="80.7264" ry="78.6291" transform="rotate(-130.503 332.498 295.15)" fill="url(#paint6_radial_684_276)" fill-opacity="0.6"/>
</g>
<g style="mix-blend-mode:lighten">
<path d="M236.941 223.059C283.51 183.281 353.619 188.914 393.533 235.642C433.446 282.37 428.051 352.497 381.481 392.276C334.912 432.054 264.804 426.42 224.89 379.692C184.976 332.964 190.372 262.837 236.941 223.059Z" fill="url(#paint7_radial_684_276)" fill-opacity="0.8"/>
</g>
<path d="M368.477 346.886C373.166 369.036 359.828 380.429 338.684 372.334C317.541 364.239 296.599 339.722 291.909 317.573C287.219 295.424 300.557 284.031 321.701 292.125C342.845 300.22 363.787 324.737 368.477 346.886Z" fill="url(#paint8_radial_684_276)"/>
<path d="M369.398 205.45C405.676 200.256 434.096 209.752 450.751 229.251C467.407 248.75 472.344 278.305 461.542 313.325C450.74 348.346 426.249 382.171 395.377 408.541C364.504 434.912 327.266 453.814 290.987 459.009C254.709 464.203 226.289 454.707 209.633 435.208C192.978 415.709 188.042 386.154 198.843 351.134C209.646 316.113 234.136 282.287 265.009 255.917C295.882 229.546 333.119 210.645 369.398 205.45Z" stroke="url(#paint9_linear_684_276)" stroke-width="0.451485"/>
<path d="M365.229 200.421C401.549 195.22 430.038 204.724 446.745 224.283C463.451 243.842 468.385 273.467 457.57 308.528C446.756 343.589 422.242 377.441 391.349 403.829C360.457 430.216 323.189 449.136 286.869 454.336C250.549 459.537 222.059 450.033 205.353 430.474C188.646 410.915 183.712 381.291 194.526 346.23C205.341 311.169 229.855 277.317 260.747 250.93C291.64 224.542 328.908 205.621 365.229 200.421Z" stroke="url(#paint10_linear_684_276)" stroke-width="0.0902969"/>
<path d="M368.969 178.442C411.448 173.19 445.072 185.11 465.122 208.584C485.173 232.058 491.691 267.132 479.862 308.268C468.032 349.406 440.098 388.793 404.488 419.21C368.878 449.627 325.609 471.06 283.128 476.313C240.648 481.566 207.025 469.645 186.974 446.171C166.923 422.697 160.405 387.623 172.235 346.487C184.064 305.349 211.998 265.963 247.608 235.546C283.218 205.129 326.487 183.696 368.969 178.442Z" stroke="url(#paint11_linear_684_276)" stroke-width="0.451485"/>
<path d="M368.969 178.442C411.448 173.19 445.072 185.11 465.122 208.584C485.173 232.058 491.691 267.132 479.862 308.268C468.032 349.406 440.098 388.793 404.488 419.21C368.878 449.627 325.609 471.06 283.128 476.313C240.648 481.566 207.025 469.645 186.974 446.171C166.923 422.697 160.405 387.623 172.235 346.487C184.064 305.349 211.998 265.963 247.608 235.546C283.218 205.129 326.487 183.696 368.969 178.442Z" stroke="url(#paint12_linear_684_276)" stroke-opacity="0.2" stroke-width="0.451485"/>
<path d="M353.166 159.958C397.301 156.645 433.108 171.105 455.34 197.133C477.572 223.161 486.257 260.788 476.085 303.862C465.913 346.939 438.81 387.292 403.204 417.706C367.597 448.12 323.502 468.582 279.365 471.895C235.23 475.208 199.424 460.747 177.192 434.719C154.96 408.691 146.274 371.065 156.446 327.991C166.618 284.914 193.722 244.561 229.328 214.147C264.935 183.733 309.029 163.271 353.166 159.958Z" stroke="url(#paint13_linear_684_276)" stroke-width="0.451485"/>
<rect x="268.649" y="299.831" width="1.71492" height="1.71492" transform="rotate(-85.503 268.649 299.831)" fill="#00F0FF" fill-opacity="0.5"/>
<rect x="268.719" y="230.651" width="0.707118" height="0.707118" transform="rotate(-85.503 268.719 230.651)" fill="#00F0FF"/>
<rect width="0.928634" height="0.928634" transform="matrix(-0.078406 0.996921 0.996922 0.0784061 408.142 217.61)" fill="#00F0FF"/>
<rect x="294.196" y="212.105" width="1.06943" height="1.06943" transform="rotate(-85.503 294.196 212.105)" fill="#00F0FF"/>
<rect x="297.265" y="227.689" width="0.633799" height="0.6338" transform="rotate(-85.503 297.265 227.689)" fill="#00F0FF"/>
<rect x="299.962" y="328.961" width="1.71492" height="1.71492" transform="rotate(-85.503 299.962 328.961)" fill="#00F0FF"/>
<rect x="250.213" y="359.441" width="1.71492" height="1.71492" transform="rotate(-85.503 250.213 359.441)" fill="#0500FF" fill-opacity="0.5"/>
<rect x="236.367" y="306.756" width="1.19855" height="1.19855" transform="rotate(-85.503 236.367 306.756)" fill="#3DFFFB"/>
<rect x="376.943" y="383.24" width="2.22901" height="2.22901" transform="rotate(-85.503 376.943 383.24)" fill="#0500FF" fill-opacity="0.5"/>
<rect width="2.37993" height="2.37993" transform="matrix(0.078411 -0.996921 0.996922 0.0784011 477.271 341.995)" fill="#0066FF" fill-opacity="0.5"/>
<rect width="4.80657" height="4.80657" transform="matrix(0.0784036 -0.996922 0.996921 0.0784085 496.901 291.99)" fill="#0066FF" fill-opacity="0.5"/>
<rect width="2.2366" height="2.2366" transform="matrix(-0.0784061 0.996922 0.996922 0.0784061 442.348 222.888)" fill="#0066FF" fill-opacity="0.5"/>
<rect width="2.37993" height="2.37993" transform="matrix(0.078411 -0.996921 0.996922 0.0784011 498.535 223.455)" fill="#0066FF" fill-opacity="0.5"/>
<rect width="2.37993" height="2.37993" transform="matrix(0.0784011 -0.996922 0.996921 0.078411 507.032 385.52)" fill="#0066FF" fill-opacity="0.5"/>
<rect x="437.862" y="427.901" width="2.37993" height="2.37993" transform="rotate(-85.503 437.862 427.901)" fill="#0500FF" fill-opacity="0.5"/>
<rect width="1.66646" height="1.66646" transform="matrix(0.078399 -0.996922 0.996921 0.0784131 449.811 369.878)" fill="#0500FF" fill-opacity="0.5"/>
<rect x="456.656" y="390.685" width="3.0992" height="3.0992" transform="rotate(-85.503 456.656 390.685)" fill="#0500FF" fill-opacity="0.5"/>
<rect width="2.03872" height="2.03872" transform="matrix(-0.958331 -0.28566 0.285693 -0.958321 400.568 291.384)" fill="#0066FF" fill-opacity="0.5"/>
<rect width="1.59491" height="1.59491" transform="matrix(-0.996921 -0.0784134 0.0783987 -0.996922 361.588 264.281)" fill="#00D1FF"/>
<rect width="1.91593" height="1.91593" transform="matrix(0.958326 0.285676 0.285676 -0.958326 294.623 299.239)" fill="#001AFF" fill-opacity="0.5"/>
<rect x="305.179" y="252.319" width="2.03872" height="2.03872" transform="rotate(-163.401 305.179 252.319)" fill="#0066FF" fill-opacity="0.5"/>
<rect width="2.03872" height="2.03872" transform="matrix(-0.958331 -0.28566 0.285693 -0.958321 442.331 274.288)" fill="#0066FF" fill-opacity="0.5"/>
<rect x="367.971" y="219.807" width="1.47396" height="1.47396" transform="rotate(-175.503 367.971 219.807)" fill="#0500FF" fill-opacity="0.5"/>
<rect width="1.42631" height="1.42631" transform="matrix(-0.958333 -0.285652 0.2857 -0.958319 418.973 319.368)" fill="#0500FF" fill-opacity="0.5"/>
<rect x="437.614" y="317.374" width="2.65259" height="2.65259" transform="rotate(-163.401 437.614 317.374)" fill="#0500FF" fill-opacity="0.5"/>
<rect width="1.14215" height="1.14215" transform="matrix(0.0784165 -0.996921 0.996922 0.0783957 283.176 301.692)" fill="#00FFF0" fill-opacity="0.6"/>
<rect x="273.132" y="377.01" width="1.28676" height="1.28676" transform="rotate(-85.503 273.132 377.01)" fill="#00FFF0"/>
<rect width="1.42073" height="1.42074" transform="matrix(-0.0784062 0.996921 0.996922 0.078406 230.032 286.981)" fill="#00FFF0"/>
<rect x="258.44" y="266.859" width="1.51178" height="1.51178" transform="rotate(-85.503 258.44 266.859)" fill="#00FFF0"/>
<rect width="1.51178" height="1.51178" transform="matrix(0.0783984 -0.996922 0.996921 0.0784138 368.997 326.04)" fill="#00FFF0" fill-opacity="0.5"/>
<rect x="329.681" y="344.104" width="0.828746" height="0.828746" transform="rotate(-85.503 329.681 344.104)" fill="#00FFF0" fill-opacity="0.5"/>
<rect x="302.521" y="395.214" width="1.51178" height="1.51178" transform="rotate(-120.813 302.521 395.214)" fill="#0500FF" fill-opacity="0.5"/>
<rect x="287.056" y="360.577" width="1.0555" height="1.0555" transform="rotate(-85.503 287.056 360.577)" fill="#00D1FF" fill-opacity="0.6"/>
<rect x="297.417" y="369.029" width="2.84385" height="2.84386" transform="rotate(-85.503 297.417 369.029)" fill="#6100FF" fill-opacity="0.5"/>
<g opacity="0.5">
<rect x="226.151" y="261.224" width="1.14215" height="1.14215" transform="rotate(-85.5031 226.151 261.224)" fill="#00FFF0" fill-opacity="0.6"/>
<rect width="1.28676" height="1.28676" transform="matrix(0.0784151 -0.996921 0.996922 0.0783971 216.108 336.542)" fill="#00FFF0"/>
<rect width="1.42074" height="1.42073" transform="matrix(-0.078406 0.996922 0.996921 0.0784062 173.008 246.514)" fill="#00FFF0"/>
<rect width="1.51178" height="1.51178" transform="matrix(0.0783982 -0.996922 0.996921 0.078414 201.416 226.391)" fill="#00FFF0"/>
<rect x="311.973" y="285.572" width="1.51178" height="1.51178" transform="rotate(-85.5031 311.973 285.572)" fill="#00FFF0" fill-opacity="0.5"/>
<rect x="272.657" y="303.636" width="0.828746" height="0.828746" transform="rotate(-85.5031 272.657 303.636)" fill="#00FFF0" fill-opacity="0.5"/>
<rect x="245.497" y="354.746" width="1.51178" height="1.51178" transform="rotate(-120.813 245.497 354.746)" fill="#0500FF" fill-opacity="0.5"/>
<rect x="230.032" y="320.109" width="1.0555" height="1.0555" transform="rotate(-85.5031 230.032 320.109)" fill="#00D1FF" fill-opacity="0.6"/>
<rect width="2.84385" height="2.84385" transform="matrix(0.0784018 -0.996922 0.996921 0.0784103 240.393 328.562)" fill="#6100FF" fill-opacity="0.5"/>
</g>
<path d="M365.38 378.644L363.357 368.12L373.436 371.763L375.458 382.287L365.38 378.644Z" fill="url(#paint14_linear_684_276)"/>
<path d="M373.436 371.764L363.357 368.121L355.209 387.331L373.436 371.764Z" fill="url(#paint15_linear_684_276)"/>
<path d="M373.436 371.766L375.47 382.287L355.209 387.333L373.436 371.766Z" fill="url(#paint16_linear_684_276)"/>
<path d="M291.02 288.719L289.744 282.079L296.103 284.377L297.379 291.018L291.02 288.719Z" fill="url(#paint17_linear_684_276)"/>
<path d="M296.104 284.376L289.744 282.078L284.601 294.201L296.104 284.376Z" fill="url(#paint18_linear_684_276)" fill-opacity="0.6"/>
<path d="M296.104 284.376L297.388 291.016L284.601 294.201L296.104 284.376Z" fill="url(#paint19_linear_684_276)"/>
<path d="M248 235.91L245.818 224.945L256.357 228.677L258.538 239.641L248 235.91Z" fill="url(#paint20_linear_684_276)"/>
<path d="M256.357 228.679L245.818 224.947L237.449 245.042L256.357 228.679Z" fill="url(#paint21_linear_684_276)" fill-opacity="0.6"/>
<path d="M256.356 228.679L258.55 239.64L237.449 245.042L256.356 228.679Z" fill="url(#paint22_linear_684_276)"/>
<path d="M302.074 346.628L301.432 351.664L305.176 355.935L309.74 355.462L307.798 349.76L302.074 346.628Z" fill="url(#paint23_linear_684_276)" fill-opacity="0.7"/>
<path d="M289.135 365.446L302.914 361.735L309.139 360.88L289.135 365.446Z" fill="url(#paint24_linear_684_276)" fill-opacity="0.8"/>
<path d="M289.135 365.447L295.791 353.575L296.733 346.645L289.135 365.447Z" fill="url(#paint25_linear_684_276)"/>
<path d="M296.732 346.647L295.792 353.579L301.432 351.664L302.074 346.628L296.732 346.647Z" fill="url(#paint26_linear_684_276)" fill-opacity="0.6"/>
<path d="M302.913 361.734L295.792 353.578L301.433 351.662L305.175 355.934L302.913 361.734Z" fill="url(#paint27_linear_684_276)" fill-opacity="0.6"/>
<path d="M302.912 361.736L309.138 360.88L309.74 355.461L305.175 355.935L302.912 361.736Z" fill="url(#paint28_linear_684_276)" fill-opacity="0.8"/>
<path d="M289.135 365.446L305.956 351.692L309.139 360.88L289.135 365.446Z" fill="url(#paint29_linear_684_276)"/>
<path d="M289.135 365.446L305.955 351.692L296.733 346.644L289.135 365.446Z" fill="url(#paint30_linear_684_276)"/>
<path d="M309.138 360.881L305.956 351.691L307.799 349.759L309.74 355.464L309.138 360.881Z" fill="url(#paint31_linear_684_276)" fill-opacity="0.6"/>
<path d="M296.73 346.647L305.955 351.692L307.799 349.76L302.072 346.628L296.73 346.647Z" fill="url(#paint32_linear_684_276)" fill-opacity="0.6"/>
<defs>
<linearGradient id="paint0_linear_684_276" x1="361.935" y1="270.334" x2="314.922" y2="345.274" gradientUnits="userSpaceOnUse">
<stop stop-color="white"/>
<stop offset="0.165772" stop-color="#71FFF6"/>
<stop offset="0.552083" stop-color="#4F75FF"/>
<stop offset="1" stop-color="#5E64FF" stop-opacity="0"/>
</linearGradient>
<radialGradient id="paint1_radial_684_276" cx="0" cy="0" r="1" gradientUnits="userSpaceOnUse" gradientTransform="translate(334.068 343.707) rotate(-77.9792) scale(58.8792 70.2741)">
<stop offset="0.40625" stop-color="#3330B1" stop-opacity="0.1"/>
<stop offset="0.678936" stop-color="#58FFFF" stop-opacity="0.5"/>
<stop offset="1" stop-color="white"/>
</radialGradient>
<radialGradient id="paint2_radial_684_276" cx="0" cy="0" r="1" gradientUnits="userSpaceOnUse" gradientTransform="translate(329.74 286.362) rotate(123.323) scale(74.9251 128.338)">
<stop stop-color="white"/>
<stop offset="0.298196" stop-color="#5EF5FF"/>
<stop offset="0.538073" stop-color="#3432BD"/>
<stop offset="0.914407" stop-color="#171940"/>
</radialGradient>
<linearGradient id="paint3_linear_684_276" x1="327.446" y1="281.482" x2="309.164" y2="361.643" gradientUnits="userSpaceOnUse">
<stop stop-color="white"/>
<stop offset="1" stop-color="white" stop-opacity="0"/>
</linearGradient>
<linearGradient id="paint4_linear_684_276" x1="360.164" y1="278.812" x2="353.727" y2="335.019" gradientUnits="userSpaceOnUse">
<stop stop-color="white"/>
<stop offset="0.502014" stop-color="#4FFFF4" stop-opacity="0.1"/>
<stop offset="1" stop-color="#5ECFFF" stop-opacity="0.6"/>
</linearGradient>
<linearGradient id="paint5_linear_684_276" x1="354.8" y1="254.306" x2="364.314" y2="380.555" gradientUnits="userSpaceOnUse">
<stop stop-color="white"/>
<stop offset="1" stop-color="white" stop-opacity="0"/>
</linearGradient>
<radialGradient id="paint6_radial_684_276" cx="0" cy="0" r="1" gradientUnits="userSpaceOnUse" gradientTransform="translate(332.498 300.723) rotate(80.7781) scale(62.5064 64.2114)">
<stop offset="0.0729167" stop-color="white"/>
<stop offset="0.507801" stop-color="#C173FF" stop-opacity="0.9"/>
<stop offset="1" stop-color="#0E26FF" stop-opacity="0"/>
</radialGradient>
<radialGradient id="paint7_radial_684_276" cx="0" cy="0" r="1" gradientUnits="userSpaceOnUse" gradientTransform="translate(315.188 302.562) rotate(-49.5194) scale(88.1055 88.5593)">
<stop offset="0.0729167" stop-color="#8785FF"/>
<stop offset="1" stop-color="#3E0EFF" stop-opacity="0"/>
</radialGradient>
<radialGradient id="paint8_radial_684_276" cx="0" cy="0" r="1" gradientUnits="userSpaceOnUse" gradientTransform="translate(294.777 373.238) rotate(-55.6889) scale(76.5539 134.694)">
<stop stop-color="#3330B1"/>
<stop offset="1" stop-color="#0A0926"/>
</radialGradient>
<linearGradient id="paint9_linear_684_276" x1="233.46" y1="218.982" x2="338.612" y2="342.085" gradientUnits="userSpaceOnUse">
<stop stop-color="#8FBCFF" stop-opacity="0.6"/>
<stop offset="1" stop-color="#8FBCFF" stop-opacity="0"/>
</linearGradient>
<linearGradient id="paint10_linear_684_276" x1="255.04" y1="244.248" x2="391.379" y2="403.863" gradientUnits="userSpaceOnUse">
<stop stop-color="#8FBCFF" stop-opacity="0.6"/>
<stop offset="1" stop-color="#8FBCFF" stop-opacity="0"/>
</linearGradient>
<linearGradient id="paint11_linear_684_276" x1="204.992" y1="185.655" x2="349.126" y2="354.396" gradientUnits="userSpaceOnUse">
<stop stop-color="white" stop-opacity="0.6"/>
<stop offset="0.34375" stop-color="#8FBCFF" stop-opacity="0.6"/>
<stop offset="1" stop-color="#8FBCFF" stop-opacity="0"/>
</linearGradient>
<linearGradient id="paint12_linear_684_276" x1="336.688" y1="187.219" x2="350.339" y2="246.345" gradientUnits="userSpaceOnUse">
<stop stop-color="#FF48D7"/>
<stop offset="0.234164" stop-color="white" stop-opacity="0.765836"/>
<stop offset="1" stop-color="#FF48D7" stop-opacity="0"/>
</linearGradient>
<linearGradient id="paint13_linear_684_276" x1="221.614" y1="205.114" x2="325.964" y2="327.28" gradientUnits="userSpaceOnUse">
<stop stop-color="#8FBCFF" stop-opacity="0.6"/>
<stop offset="1" stop-color="#8FBCFF" stop-opacity="0"/>
</linearGradient>
<linearGradient id="paint14_linear_684_276" x1="362.841" y1="374.687" x2="375.975" y2="375.72" gradientUnits="userSpaceOnUse">
<stop stop-color="#6083FF"/>
<stop offset="1" stop-color="#0C1E5E" stop-opacity="0"/>
</linearGradient>
<linearGradient id="paint15_linear_684_276" x1="365.949" y1="366.749" x2="355.154" y2="387.266" gradientUnits="userSpaceOnUse">
<stop offset="0.170794" stop-color="#3D3BA9"/>
<stop offset="0.537799" stop-color="#FF7BE2" stop-opacity="0.8"/>
<stop offset="0.791667" stop-color="white"/>
</linearGradient>
<linearGradient id="paint16_linear_684_276" x1="355.281" y1="387.417" x2="374.616" y2="381.106" gradientUnits="userSpaceOnUse">
<stop stop-color="#3DDCFF"/>
<stop offset="0.427083" stop-color="#9D50FF" stop-opacity="0"/>
<stop offset="0.977116" stop-color="#3DDCFF"/>
</linearGradient>
<linearGradient id="paint17_linear_684_276" x1="289.418" y1="286.222" x2="297.705" y2="286.874" gradientUnits="userSpaceOnUse">
<stop stop-color="#6083FF"/>
<stop offset="1" stop-color="#0C1E5E" stop-opacity="0"/>
</linearGradient>
<linearGradient id="paint18_linear_684_276" x1="291.379" y1="281.212" x2="284.567" y2="294.16" gradientUnits="userSpaceOnUse">
<stop offset="0.170794" stop-color="#3D3BA9"/>
<stop offset="0.537799" stop-color="#FF7BE2" stop-opacity="0.8"/>
<stop offset="0.791667" stop-color="white"/>
</linearGradient>
<linearGradient id="paint19_linear_684_276" x1="284.646" y1="294.254" x2="296.849" y2="290.271" gradientUnits="userSpaceOnUse">
<stop stop-color="#3DDCFF"/>
<stop offset="0.427083" stop-color="#9D50FF" stop-opacity="0.5"/>
<stop offset="0.977116" stop-color="#3DDCFF"/>
</linearGradient>
<linearGradient id="paint20_linear_684_276" x1="245.324" y1="231.799" x2="259.032" y2="232.788" gradientUnits="userSpaceOnUse">
<stop stop-color="#6083FF"/>
<stop offset="1" stop-color="#0C1E5E" stop-opacity="0"/>
</linearGradient>
<linearGradient id="paint21_linear_684_276" x1="248.513" y1="223.499" x2="237.391" y2="244.974" gradientUnits="userSpaceOnUse">
<stop offset="0.170794" stop-color="#3D3BA9"/>
<stop offset="0.537799" stop-color="#FF7BE2" stop-opacity="0.8"/>
<stop offset="0.791667" stop-color="white"/>
</linearGradient>
<linearGradient id="paint22_linear_684_276" x1="237.524" y1="245.128" x2="257.651" y2="238.414" gradientUnits="userSpaceOnUse">
<stop stop-color="#3DDCFF"/>
<stop offset="0.427083" stop-color="#9D50FF" stop-opacity="0.5"/>
<stop offset="0.977116" stop-color="#3DDCFF"/>
</linearGradient>
<linearGradient id="paint23_linear_684_276" x1="299.657" y1="350.031" x2="308.534" y2="350.571" gradientUnits="userSpaceOnUse">
<stop stop-color="#6587FF"/>
<stop offset="1" stop-color="#D8E0FF" stop-opacity="0.9"/>
</linearGradient>
<linearGradient id="paint24_linear_684_276" x1="301.651" y1="354.756" x2="308.278" y2="366.475" gradientUnits="userSpaceOnUse">
<stop offset="0.135417" stop-color="white"/>
<stop offset="0.28125" stop-color="#89F8FF" stop-opacity="0.934673"/>
<stop offset="0.645833" stop-color="#71F6FF" stop-opacity="0.921354"/>
<stop offset="1" stop-color="#4A72FF" stop-opacity="0.9"/>
</linearGradient>
<linearGradient id="paint25_linear_684_276" x1="289.186" y1="352.114" x2="295.201" y2="362.225" gradientUnits="userSpaceOnUse">
<stop offset="0.170794" stop-color="#3D3BA9"/>
<stop offset="0.537799" stop-color="#FF7BE2" stop-opacity="0.8"/>
<stop offset="0.791667" stop-color="white"/>
</linearGradient>
<linearGradient id="paint26_linear_684_276" x1="299.181" y1="344.555" x2="302.231" y2="351.48" gradientUnits="userSpaceOnUse">
<stop offset="0.135417" stop-color="white"/>
<stop offset="0.28125" stop-color="#89F8FF" stop-opacity="0.934673"/>
<stop offset="0.645833" stop-color="#71F6FF" stop-opacity="0.921354"/>
<stop offset="1" stop-color="#4A72FF" stop-opacity="0.9"/>
</linearGradient>
<linearGradient id="paint27_linear_684_276" x1="298.01" y1="351.683" x2="295.418" y2="359.093" gradientUnits="userSpaceOnUse">
<stop offset="0.135417" stop-color="white"/>
<stop offset="0.28125" stop-color="#89F8FF" stop-opacity="0.934673"/>
<stop offset="0.645833" stop-color="#71F6FF" stop-opacity="0.921354"/>
<stop offset="1" stop-color="#4A72FF" stop-opacity="0.9"/>
</linearGradient>
<linearGradient id="paint28_linear_684_276" x1="308.804" y1="355.598" x2="311.545" y2="360.871" gradientUnits="userSpaceOnUse">
<stop offset="0.135417" stop-color="white"/>
<stop offset="0.28125" stop-color="#89F8FF" stop-opacity="0.934673"/>
<stop offset="0.645833" stop-color="#71F6FF" stop-opacity="0.921354"/>
<stop offset="1" stop-color="#4A72FF" stop-opacity="0.9"/>
</linearGradient>
<linearGradient id="paint29_linear_684_276" x1="295.412" y1="372.663" x2="298.806" y2="354.213" gradientUnits="userSpaceOnUse">
<stop stop-color="#3DDCFF"/>
<stop offset="0.427083" stop-color="#9D50FF" stop-opacity="0"/>
<stop offset="0.977116" stop-color="#3DDCFF"/>
</linearGradient>
<linearGradient id="paint30_linear_684_276" x1="303.654" y1="344.551" x2="302.33" y2="370.815" gradientUnits="userSpaceOnUse">
<stop offset="0.170794" stop-color="#3D3BA9"/>
<stop offset="0.537799" stop-color="#FF7BE2" stop-opacity="0.8"/>
<stop offset="0.791667" stop-color="white"/>
</linearGradient>
<linearGradient id="paint31_linear_684_276" x1="308.494" y1="349.523" x2="310.275" y2="360.525" gradientUnits="userSpaceOnUse">
<stop offset="0.135417" stop-color="white"/>
<stop offset="0.28125" stop-color="#89F8FF" stop-opacity="0.934673"/>
<stop offset="0.645833" stop-color="#71F6FF" stop-opacity="0.921354"/>
<stop offset="1" stop-color="#4A72FF" stop-opacity="0.9"/>
</linearGradient>
<linearGradient id="paint32_linear_684_276" x1="299.922" y1="350.383" x2="305.699" y2="345.449" gradientUnits="userSpaceOnUse">
<stop stop-color="#3E5ABE"/>
<stop offset="1" stop-color="#3E5ABE" stop-opacity="0"/>
</linearGradient>
</defs>
</svg>
